#!OML:ASF X:\für Bonn\!DataBase\2005_08_10_Bjorn_Final\c3d\bjorn.ASF
:FULLY-SPECIFIED
:DEGREES
47
root 8.26527 18.9398 2.46224 -177.981 85.5649 -173.947
lowerback 16.6228 3.24747 3.15961
upperback 17.0062 6.59232 -2.16971
thorax 10.0883 4.59984 -4.46661
lowerneck 2.07851 -6.20599 2.81372
upperneck 10.7341 -8.22354 2.53074
head 3.07282 -3.7647 0.181097
rclavicle -1.20886e-014 -1.21756e-015
rhumerus 6.1487 -1.33269 -83.4079
rradius 35.0343
rwrist -1.80519
rhand -18.9073 15.837
rfingers 7.12502
rthumb 7.39464 -14.0137
lclavicle -1.20886e-014 -1.21756e-015
lhumerus -16.5594 -9.19974 87.0345
lradius 27.7426
lwrist -19.8526
lhand -20.7113 -11.7682
lfingers 7.12502
lthumb 5.65309 18.1363
rfemur -12.7313 -8.78158 18.8768
rtibia 37.0972
rfoot -13.491 17.5426
rtoes 1.00599
lfemur -23.0086 10.2669 -13.2882
ltibia 32.1197
lfoot -0.643413 -4.7771
ltoes -11.8744
48
root 8.2808 18.9096 2.45444 -177.289 85.5797 -173.361
lowerback 17.2985 3.20925 3.10685
upperback 17.204 6.60954 -2.20895
thorax 9.97441 4.63584 -4.53157
lowerneck 2.22958 -6.23018 2.73371
upperneck 10.2239 -8.26621 2.77302
head 2.88682 -3.8028 0.283645
rclavicle -1.12065e-014 -9.79014e-015
rhumerus 6.79158 -1.23178 -83.1776
rradius 34.9718
rwrist -1.92888
rhand -19.0437 16.1186
rfingers 7.12502
rthumb 7.26299 -13.7367
lclavicle -1.12065e-014 -9.79014e-015
lhumerus -15.7548 -10.1017 87.0083
lradius 28.1721
lwrist -19.0853
lhand -21.1321 -11.8914
lfingers 7.12502
lthumb 5.24677 18.0237
rfemur -13.1711 -8.67345 18.9307
rtibia 37.7901
rfoot -13.8494 17.517
rtoes 0.924136
lfemur -23.4393 10.3919 -13.3242
ltibia 32.6821
lfoot -0.13243 -5.03948
ltoes -11.652
49
root 8.29601 18.8759 2.44593 -177.428 85.5705 -173.622
lowerback 17.9643 3.1636 2.94931
upperback 17.3964 6.60124 -2.22613
thorax 9.84137 4.64381 -4.51294
lowerneck 2.37269 -6.2481 2.63846
upperneck 9.72195 -8.29478 2.94954
head 2.70423 -3.83652 0.367199
rclavicle 4.33848e-014 -3.26752e-014
rhumerus 7.42097 -1.06649 -82.9062
rradius 34.8869
rwrist -2.15098
rhand -19.1535 16.4824
rfingers 7.12502
rthumb 7.15701 -13.3766
lclavicle 4.33848e-014 -3.26752e-014
lhumerus -14.9222 -10.942 87.0013
lradius 28.5589
lwrist -18.4373
lhand -21.4781 -11.9128
lfingers 7.12502
lthumb 4.91274 18.0103
rfemur -13.6696 -8.55429 18.9086
rtibia 38.5558
rfoot -14.2126 17.5155
rtoes 0.889467
lfemur -23.913 10.4583 -13.4283
ltibia 33.3062
lfoot 0.130181 -5.13617
ltoes -11.8146
50
root 8.30895 18.8392 2.43714 -177.817 85.5426 -174.157
lowerback 18.669 3.12496 2.7896
upperback 17.5411 6.5927 -2.24754
thorax 9.63315 4.64708 -4.50513
lowerneck 2.59961 -6.277 2.57564
upperneck 9.21444 -8.32923 3.11137
head 2.50459 -3.87265 0.443414
rclavicle -1.46604e-014 1.5207e-014
rhumerus 7.9635 -0.903529 -82.6127
rradius 34.8442
rwrist -2.41192
rhand -19.2729 16.7081
rfingers 7.12502
rthumb 7.04174 -13.1548
lclavicle -1.46604e-014 1.5207e-014
lhumerus -14.1457 -11.8987 86.9732
lradius 28.9606
lwrist -17.7641
lhand -21.765 -11.9104
lfingers 7.12502
lthumb 4.63568 18.0188
rfemur -14.2386 -8.48226 18.8679
rtibia 39.3975
rfoot -14.5852 17.4938
rtoes 0.791993
lfemur -24.452 10.5494 -13.5709
ltibia 33.9999
lfoot 0.148692 -5.25036
ltoes -12.6641
51
root 8.32079 18.8007 2.42717 -178.681 85.5134 -175.192
lowerback 19.372 3.08916 2.60321
upperback 17.668 6.57999 -2.28204
thorax 9.40623 4.64468 -4.49767
lowerneck 2.77816 -6.30208 2.49825
upperneck 8.72415 -8.3626 3.29895
head 2.32325 -3.90741 0.527736
rclavicle 3.27995e-015 -3.12589e-014
rhumerus 8.47269 -0.742451 -82.323
rradius 34.8292
rwrist -2.64058
rhand -19.3125 16.8438
rfingers 7.12502
rthumb 7.00349 -13.0204
lclavicle 3.27995e-015 -3.12589e-014
lhumerus -13.3589 -12.8407 86.9025
lradius 29.367
lwrist -17.1939
lhand -21.9894 -11.8686
lfingers 7.12502
lthumb 4.41903 18.0653
rfemur -14.8736 -8.3851 18.78
rtibia 40.3101
rfoot -15.017 17.484
rtoes 0.673452
lfemur -25.0494 10.6102 -13.7558
ltibia 34.7644
lfoot -0.0245034 -5.31364
ltoes -13.1282
